<?xml version="1.0" encoding="UTF-8"?>
<svg width="16px" height="25px" viewBox="0 0 16 25" version="1.1" xmlns="http://www.w3.org/2000/svg" xmlns:xlink="http://www.w3.org/1999/xlink">
    <!-- Generator: Sketch 42 (36781) - http://www.bohemiancoding.com/sketch -->
    <title>hiking</title>
    <desc>Created with Sketch.</desc>
    <defs></defs>
    <g id="Page-1" stroke="none" stroke-width="1" fill="none" fill-rule="evenodd">
        <g id="Index" transform="translate(-202.000000, -522.000000)" fill-rule="nonzero" fill="#FFFFFF">
            <g id="hiking" transform="translate(202.000000, 522.000000)">
                <g id="Capa_1">
                    <g id="Group">
                        <path d="M7.49719481,3.97245763 C8.03402597,3.97245763 8.49288312,3.77823093 8.87381818,3.38983051 C9.25480519,3.00137712 9.44524675,2.53352754 9.44524675,1.98622881 C9.44524675,1.43882415 9.25480519,0.970974576 8.87381818,0.582627119 C8.49293506,0.194226695 8.03397403,0 7.49719481,0 C6.96041558,0 6.49288312,0.194226695 6.0945974,0.582627119 C5.69631169,0.971027542 5.49719481,1.43893008 5.49719481,1.98622881 C5.49719481,2.53352754 5.69631169,3.00143008 6.0945974,3.38983051 C6.49288312,3.77823093 6.96041558,3.97245763 7.49719481,3.97245763 Z" id="Shape"></path>
                        <path d="M4.14654545,4.29025424 C4.25044156,3.90169492 4.1118961,3.67213983 3.73096104,3.60169492 L2.12057143,3.1779661 C1.73963636,3.10736229 1.49719481,3.24862288 1.3932987,3.60169492 L0.0426493506,9.3220339 C-0.0612467532,9.6751589 0.0772987013,9.88702331 0.458233766,9.95762712 L2.06862338,10.3813559 C2.44955844,10.4519597 2.692,10.3107521 2.7958961,9.95762712 L4.14654545,4.29025424 Z" id="Shape"></path>
                        <path d="M11.730961,24.470339 L11.730961,24.5233051 C11.730961,24.8057733 11.8868052,24.9470339 12.1984935,24.9470339 C12.4755844,24.9470339 12.6314286,24.823464 12.666026,24.5762712 L15.9907013,6.72669492 L15.9907013,6.67372881 C15.9907013,6.39126059 15.8348571,6.25 15.5231688,6.25 C15.2807792,6.25 15.1249351,6.37356992 15.0556364,6.62076271 L11.730961,24.470339 Z" id="Shape"></path>
                        <path d="M0.717974026,23.3050847 L0.717974026,23.5699153 C0.717974026,23.9583157 0.847844156,24.293803 1.10758442,24.5762712 C1.36732468,24.8587394 1.68768831,25 2.06862338,25 C2.76124675,25 3.21148052,24.6645657 3.41927273,23.9936441 L5.80888312,14.1949153 L8.0945974,23.940678 C8.1638961,24.2231462 8.31974026,24.470339 8.56212987,24.6822034 C8.80462338,24.8940678 9.09896104,25 9.44524675,25 C9.82623377,25 10.1465455,24.8587394 10.4062857,24.5762712 C10.666026,24.293803 10.7958961,23.9583157 10.7958961,23.5699153 L10.7958961,23.3050847 L7.67901299,10.3283898 L7.93875325,9.21610169 L8.14654545,10.1165254 C8.18124675,10.2930614 8.25916883,10.434322 8.38031169,10.5402542 C8.50155844,10.6461864 8.61407792,10.6991525 8.71797403,10.6991525 L8.87381818,10.7521186 L12.0945974,11.5466102 L12.2504416,11.5466102 C12.5275325,11.5466102 12.7612987,11.4583157 12.9517403,11.2817797 C13.1422857,11.1052436 13.2374545,10.8933792 13.2374545,10.6461864 C13.2374545,10.1518538 12.9950649,9.8340572 12.5101818,9.69279661 L9.70498701,9.00423729 L8.92576623,5.93220339 C8.82187013,5.43776483 8.60545455,5.04936441 8.27641558,4.76694915 C7.94742857,4.48448093 7.64436364,4.32558263 7.36732468,4.29025424 L6.89979221,4.23728814 C6.44955844,4.23728814 6.05132468,4.36970339 5.70498701,4.6345339 C5.35864935,4.89936441 5.13355844,5.17304025 5.02966234,5.45550847 L4.92576623,5.87923729 L0.717974026,23.3050847 Z" id="Shape"></path>
                    </g>
                </g>
            </g>
        </g>
    </g>
</svg>