<?xml version="1.0" encoding="UTF-8"?>
<svg width="26px" height="25px" viewBox="0 0 26 25" version="1.1" xmlns="http://www.w3.org/2000/svg" xmlns:xlink="http://www.w3.org/1999/xlink">
    <!-- Generator: Sketch 42 (36781) - http://www.bohemiancoding.com/sketch -->
    <title>Setor-climbing</title>
    <desc>Created with Sketch.</desc>
    <defs></defs>
    <g id="Page-1" stroke="none" stroke-width="1" fill="none" fill-rule="evenodd">
        <g id="Index" transform="translate(-113.000000, -522.000000)" fill-rule="nonzero" fill="#FFFFFF">
            <g id="Setor-climbing" transform="translate(113.000000, 522.000000)">
                <g id="Capa_1">
                    <g id="Group">
                        <path d="M25.0828701,10.2877871 L22.3951818,7.32886221 C22.1539983,7.06330898 21.8393094,6.87588727 21.4914076,6.79055324 L19.818949,6.38037578 L17.8336756,4.53663883 L17.4881164,1.43251566 C17.4360066,0.966962422 17.024282,0.630845511 16.5521185,0.683455115 C16.0874512,0.735281837 15.7525638,1.15516701 15.8046216,1.62145094 L16.1858924,5.0394572 C16.2088498,5.24170146 16.3031264,5.42948852 16.4521156,5.56795407 L19.3377274,8.24770355 L18.1545594,13.1553758 L15.0307314,13.0799582 C14.6710646,13.0658142 14.3047864,13.2245825 14.0574081,13.4994259 L11.0147381,16.8783925 C10.5442924,17.4006785 10.5855742,18.2055846 11.1064638,18.6768267 C11.6249067,19.1480689 12.4301877,19.1066806 12.9000087,18.5852818 L15.552506,15.6398225 L17.7040518,15.6916493 L16.4405067,17.4992171 C16.2462793,17.7768789 16.1709518,18.120929 16.2305058,18.4551148 L17.0390664,22.9697808 C17.1498973,23.5856994 17.6848946,24.0185282 18.2877751,24.0185282 C18.3620615,24.0185282 18.4382219,24.0118476 18.5133412,23.9980689 C19.2038349,23.8737474 19.6635046,23.2117954 19.5396593,22.5196242 L18.824282,18.5267745 L21.1444949,15.2065762 C21.2287764,15.0860125 21.2968679,14.9564718 21.331278,14.8182672 C21.6320155,13.6096555 22.4980478,9.97865344 22.4980478,9.97865344 L23.5573184,11.13262 L23.0455389,14.2134656 C22.9685456,14.6757307 23.2802672,15.1129436 23.7416028,15.1900835 C23.788663,15.1979645 23.8352026,15.2017745 23.881534,15.2017745 C24.288313,15.2017745 24.6470949,14.9074113 24.715759,14.492119 L25.2954218,11.0020355 C25.3383694,10.7441545 25.2597102,10.4805846 25.0828701,10.2877871 Z" id="Shape"></path>
                        <path d="M20.6831593,5.9940501 C21.5736588,6.60005219 22.7875929,6.36628392 23.392764,5.47134656 C23.9971021,4.57729645 23.7640397,3.36069937 22.8718223,2.75427975 C21.9788241,2.14786013 20.7666079,2.38204593 20.1614368,3.27614823 C19.5576192,4.1710334 19.790109,5.38721294 20.6831593,5.9940501 Z" id="Shape"></path>
                        <path d="M11.06513,3.68903967 L15.3465656,0.547912317 C15.4516181,0.471242171 15.4945658,0.335699374 15.4549498,0.212212944 C15.4142927,0.0891440501 15.2995055,0.00537578288 15.1695694,0.00537578288 L1.34111114,0.00537578288 C0.600381757,0.00532359081 0,0.607202505 0,1.34958246 L0,24.5253132 C0,24.718476 0.129936085,24.8871608 0.316719206,24.9356994 C0.502617347,24.984238 0.698770859,24.9 0.79216242,24.7313152 L4.46098273,18.122547 C4.57847702,17.9115866 4.66520519,17.6848643 4.71981375,17.4490605 L5.98741938,11.9432672 C6.0997079,11.4545929 6.35291668,11.0090292 6.7141973,10.6616388 L8.96824479,8.49749478 C9.35680366,8.12484342 9.61802933,7.63950939 9.71730341,7.10975992 L10.0564074,5.29504175 C10.1762443,4.6506263 10.5367441,4.07614823 11.06513,3.68903967 Z" id="Shape"></path>
                    </g>
                </g>
            </g>
        </g>
    </g>
</svg>