<?xml version="1.0" encoding="UTF-8"?>
<svg width="129px" height="24px" viewBox="0 0 129 24" version="1.1" xmlns="http://www.w3.org/2000/svg" xmlns:xlink="http://www.w3.org/1999/xlink">
    <!-- Generator: Sketch 42 (36781) - http://www.bohemiancoding.com/sketch -->
    <title>Group 6</title>
    <desc>Created with Sketch.</desc>
    <defs></defs>
    <g id="Page-1" stroke="none" stroke-width="1" fill="none" fill-rule="evenodd">
        <g id="Index" transform="translate(-14.000000, -9.000000)">
            <g id="Group-6" transform="translate(14.000000, 9.000000)">
                <g id="Group-4" transform="translate(0.000000, 1.000000)" fill="#000000">
                    <g id="logo-9too">
                        <g id="Group-3">
                            <g id="Page-1">
                                <g id="Logo-dtoo">
                                    <g id="Group-3">
                                        <g id="Group-2">
                                            <g id="Group" transform="translate(6.256978, 10.000000) rotate(180.000000) translate(-6.256978, -10.000000) translate(0.256978, 0.000000)">
                                                <path d="M10.5536333,17.5878065 C9.49301265,19.0497412 7.77402308,20 5.83381399,20 C2.61188752,20 6.66667386e-08,17.3795489 6.66667386e-08,14.1470588 C6.66667386e-08,10.9145687 2.61188752,8.29411765 5.83381399,8.29411765 C7.77402308,8.29411765 9.49301265,9.24437639 10.5536333,10.7063111 L10.5536333,3.55271368e-15 L11.7262592,3.55271368e-15 L11.7262592,20 L10.5536333,20 L10.5536333,17.5878065 Z M5.83381399,18.7647059 C8.40811704,18.7647059 10.495002,16.6709787 10.495002,14.0882353 C10.495002,11.5054919 8.40811704,9.41176471 5.83381399,9.41176471 C3.25951093,9.41176471 1.17262598,11.5054919 1.17262598,14.0882353 C1.17262598,16.6709787 3.25951093,18.7647059 5.83381399,18.7647059 Z" id="Combined-Shape" transform="translate(5.863130, 10.000000) scale(-1, 1) translate(-5.863130, -10.000000) "></path>
                                                <path d="M10.5536333,17.5878065 C9.49301265,19.0497412 7.77402308,20 5.83381399,20 C2.61188752,20 6.66667475e-08,17.3795489 6.66667475e-08,14.1470588 C6.66667475e-08,10.9145687 2.61188752,8.29411765 5.83381399,8.29411765 C7.77402308,8.29411765 9.49301265,9.24437639 10.5536333,10.7063111 L10.5536333,3.55271368e-15 L11.7262592,3.55271368e-15 L11.7262592,20 L10.5536333,20 L10.5536333,17.5878065 Z M5.83381399,18.7647059 C8.40811704,18.7647059 10.495002,16.6709787 10.495002,14.0882353 C10.495002,11.5054919 8.40811704,9.41176471 5.83381399,9.41176471 C3.25951093,9.41176471 1.17262598,11.5054919 1.17262598,14.0882353 C1.17262598,16.6709787 3.25951093,18.7647059 5.83381399,18.7647059 Z" id="Combined-Shape" transform="translate(5.863130, 10.000000) scale(-1, 1) translate(-5.863130, -10.000000) "></path>
                                            </g>
                                        </g>
                                        <polygon id="Combined-Shape" points="14.6022299 5.88235295 14.6022299 0 13.429604 0 13.429604 20 14.6022299 20 14.6022299 7.05882353 15.7748559 7.05882353 15.7748559 5.88235295"></polygon>
                                        <path d="M21.6086697,19.9411765 C24.8305963,19.9411765 27.4424836,17.3207255 27.4424836,14.0882353 C27.4424836,10.8557451 24.8305963,8.23529412 21.6086697,8.23529412 C18.3867433,8.23529412 15.7748559,10.8557451 15.7748559,14.0882353 C15.7748559,17.3207255 18.3867433,19.9411765 21.6086697,19.9411765 Z M21.6673011,18.8235295 C24.2416041,18.8235295 26.3284891,16.7298023 26.3284891,14.1470588 C26.3284891,11.5643154 24.2416041,9.47058824 21.6673011,9.47058824 C19.092998,9.47058824 17.0061131,11.5643154 17.0061131,14.1470588 C17.0061131,16.7298023 19.092998,18.8235295 21.6673011,18.8235295 Z" id="Combined-Shape"></path>
                                        <path d="M34.5661861,19.9411765 C37.7881125,19.9411765 40.4,17.3207255 40.4,14.0882353 C40.4,10.8557451 37.7881125,8.23529412 34.5661861,8.23529412 C31.3442596,8.23529412 28.7323721,10.8557451 28.7323721,14.0882353 C28.7323721,17.3207255 31.3442596,19.9411765 34.5661861,19.9411765 Z M34.5661861,18.8235295 C37.1404891,18.8235295 39.2273741,16.7298023 39.2273741,14.1470588 C39.2273741,11.5643154 37.1404891,9.47058824 34.5661861,9.47058824 C31.9918831,9.47058824 29.9049981,11.5643154 29.9049981,14.1470588 C29.9049981,16.7298023 31.9918831,18.8235295 34.5661861,18.8235295 Z" id="Combined-Shape"></path>
                                    </g>
                                </g>
                            </g>
                        </g>
                    </g>
                </g>
                <path d="M62.8671875,13.0839844 L59.9433594,13.0839844 L59.9433594,21 L59.2226562,21 L59.2226562,13.0839844 L56.3046875,13.0839844 L56.3046875,12.46875 L62.8671875,12.46875 L62.8671875,13.0839844 Z M63.1132812,17.7363281 C63.1132812,17.1269501 63.2314441,16.5781274 63.4677734,16.0898438 C63.7041027,15.6015601 64.0380838,15.221681 64.4697266,14.9501953 C64.9013693,14.6787096 65.3906223,14.5429688 65.9375,14.5429688 C66.7812542,14.5429688 67.4648411,14.8388642 67.9882812,15.4306641 C68.5117214,16.0224639 68.7734375,16.8066357 68.7734375,17.7832031 L68.7734375,17.9296875 C68.7734375,18.5429718 68.6552746,19.0947241 68.4189453,19.5849609 C68.182616,20.0751978 67.8496115,20.4531237 67.4199219,20.71875 C66.9902322,20.9843763 66.5000028,21.1171875 65.9492188,21.1171875 C65.1093708,21.1171875 64.4267604,20.821292 63.9013672,20.2294922 C63.3759739,19.6376924 63.1132812,18.8535205 63.1132812,17.8769531 L63.1132812,17.7363281 Z M63.8164062,17.9296875 C63.8164062,18.6875038 64.0126933,19.3095679 64.4052734,19.7958984 C64.7978535,20.282229 65.3124968,20.5253906 65.9492188,20.5253906 C66.5820344,20.5253906 67.0947246,20.282229 67.4873047,19.7958984 C67.8798848,19.3095679 68.0761719,18.6679727 68.0761719,17.8710938 L68.0761719,17.7363281 C68.0761719,17.2519507 67.986329,16.8085958 67.8066406,16.40625 C67.6269522,16.0039042 67.3750016,15.6923839 67.0507812,15.4716797 C66.7265609,15.2509755 66.3554708,15.140625 65.9375,15.140625 C65.3124969,15.140625 64.8027363,15.3857397 64.4082031,15.8759766 C64.0136699,16.3662134 63.8164062,17.0078085 63.8164062,17.8007812 L63.8164062,17.9296875 Z M75.3183594,17.8945312 C75.3183594,18.8828174 75.0996116,19.6669893 74.6621094,20.2470703 C74.2246072,20.8271513 73.6386755,21.1171875 72.9042969,21.1171875 C72.037105,21.1171875 71.3730492,20.812503 70.9121094,20.203125 L70.9121094,23.4375 L70.2148438,23.4375 L70.2148438,14.6601562 L70.8652344,14.6601562 L70.9003906,15.5566406 C71.3574242,14.880856 72.0195269,14.5429688 72.8867188,14.5429688 C73.644535,14.5429688 74.2392557,14.8300753 74.6708984,15.4042969 C75.1025412,15.9785185 75.3183594,16.7753855 75.3183594,17.7949219 L75.3183594,17.8945312 Z M74.6152344,17.7714844 C74.6152344,16.9628866 74.4492204,16.3242211 74.1171875,15.8554688 C73.7851546,15.3867164 73.3222686,15.1523438 72.7285156,15.1523438 C72.298826,15.1523438 71.929689,15.2558583 71.6210938,15.4628906 C71.3124985,15.6699229 71.0761727,15.9707012 70.9121094,16.3652344 L70.9121094,19.40625 C71.080079,19.7695331 71.3203109,20.046874 71.6328125,20.2382812 C71.9453141,20.4296885 72.314451,20.5253906 72.7402344,20.5253906 C73.3300811,20.5253906 73.7900374,20.2900414 74.1201172,19.8193359 C74.450197,19.3486305 74.6152344,18.6660201 74.6152344,17.7714844 Z M76.484375,17.7363281 C76.484375,17.1269501 76.6025379,16.5781274 76.8388672,16.0898438 C77.0751965,15.6015601 77.4091775,15.221681 77.8408203,14.9501953 C78.2724631,14.6787096 78.761716,14.5429688 79.3085938,14.5429688 C80.152348,14.5429688 80.8359349,14.8388642 81.359375,15.4306641 C81.8828151,16.0224639 82.1445312,16.8066357 82.1445312,17.7832031 L82.1445312,17.9296875 C82.1445312,18.5429718 82.0263684,19.0947241 81.7900391,19.5849609 C81.5537098,20.0751978 81.2207053,20.4531237 80.7910156,20.71875 C80.361326,20.9843763 79.8710965,21.1171875 79.3203125,21.1171875 C78.4804646,21.1171875 77.7978542,20.821292 77.2724609,20.2294922 C76.7470677,19.6376924 76.484375,18.8535205 76.484375,17.8769531 L76.484375,17.7363281 Z M77.1875,17.9296875 C77.1875,18.6875038 77.3837871,19.3095679 77.7763672,19.7958984 C78.1689473,20.282229 78.6835906,20.5253906 79.3203125,20.5253906 C79.9531282,20.5253906 80.4658183,20.282229 80.8583984,19.7958984 C81.2509785,19.3095679 81.4472656,18.6679727 81.4472656,17.8710938 L81.4472656,17.7363281 C81.4472656,17.2519507 81.3574228,16.8085958 81.1777344,16.40625 C80.998046,16.0039042 80.7460954,15.6923839 80.421875,15.4716797 C80.0976546,15.2509755 79.7265646,15.140625 79.3085938,15.140625 C78.6835906,15.140625 78.1738301,15.3857397 77.7792969,15.8759766 C77.3847637,16.3662134 77.1875,17.0078085 77.1875,17.8007812 L77.1875,17.9296875 Z M87.3886719,19.3886719 C87.3886719,19.0410139 87.2490248,18.7617198 86.9697266,18.5507812 C86.6904283,18.3398427 86.2695341,18.1748053 85.7070312,18.0556641 C85.1445284,17.9365228 84.7080094,17.7998055 84.3974609,17.6455078 C84.0869125,17.4912102 83.8564461,17.3027355 83.7060547,17.0800781 C83.5556633,16.8574208 83.4804688,16.5878922 83.4804688,16.2714844 C83.4804688,15.7714819 83.689451,15.3584001 84.1074219,15.0322266 C84.5253927,14.7060531 85.0605436,14.5429688 85.7128906,14.5429688 C86.4199254,14.5429688 86.9873025,14.7177717 87.4150391,15.0673828 C87.8427756,15.4169939 88.0566406,15.8730441 88.0566406,16.4355469 L87.3535156,16.4355469 C87.3535156,16.0644513 87.1982437,15.7558606 86.8876953,15.5097656 C86.5771469,15.2636706 86.1855492,15.140625 85.7128906,15.140625 C85.2519508,15.140625 84.8818373,15.243163 84.6025391,15.4482422 C84.3232408,15.6533213 84.1835938,15.9199202 84.1835938,16.2480469 C84.1835938,16.5644547 84.2998035,16.8095694 84.5322266,16.9833984 C84.7646496,17.1572274 85.1884735,17.3164055 85.8037109,17.4609375 C86.4189484,17.6054695 86.8798813,17.7597648 87.1865234,17.9238281 C87.4931656,18.0878914 87.7207024,18.2851551 87.8691406,18.515625 C88.0175789,18.7460949 88.0917969,19.025389 88.0917969,19.3535156 C88.0917969,19.8886746 87.8759787,20.3164046 87.4443359,20.6367188 C87.0126932,20.9570329 86.4492222,21.1171875 85.7539062,21.1171875 C85.0156213,21.1171875 84.4169945,20.9384783 83.9580078,20.5810547 C83.4990211,20.223631 83.2695312,19.7714871 83.2695312,19.2246094 L83.9726562,19.2246094 C84.0000001,19.6347677 84.17285,19.9541004 84.4912109,20.1826172 C84.8095719,20.411134 85.2304661,20.5253906 85.7539062,20.5253906 C86.2421899,20.5253906 86.6367172,20.4179698 86.9375,20.203125 C87.2382828,19.9882802 87.3886719,19.7167985 87.3886719,19.3886719 Z M93.4707031,17.5253906 L93.4707031,21 L92.75,21 L92.75,12.46875 L95.65625,12.46875 C96.5429732,12.46875 97.2431615,12.6953102 97.7568359,13.1484375 C98.2705104,13.6015648 98.5273438,14.2246054 98.5273438,15.0175781 C98.5273438,15.8183634 98.2802759,16.4365213 97.7861328,16.8720703 C97.2919897,17.3076194 96.5761766,17.5253906 95.6386719,17.5253906 L93.4707031,17.5253906 Z M93.4707031,16.9160156 L95.65625,16.9160156 C96.3554722,16.9160156 96.88867,16.7500017 97.2558594,16.4179688 C97.6230487,16.0859358 97.8066406,15.6230498 97.8066406,15.0292969 C97.8066406,14.4394502 97.6240253,13.9697283 97.2587891,13.6201172 C96.8935529,13.2705061 96.3750034,13.0917969 95.703125,13.0839844 L93.4707031,13.0839844 L93.4707031,16.9160156 Z M102.904297,15.2578125 C102.755859,15.2304686 102.597657,15.2167969 102.429688,15.2167969 C101.992185,15.2167969 101.622072,15.338866 101.319336,15.5830078 C101.0166,15.8271497 100.800782,16.1816383 100.671875,16.6464844 L100.671875,21 L99.9746094,21 L99.9746094,14.6601562 L100.660156,14.6601562 L100.671875,15.6679688 C101.042971,14.917965 101.638668,14.5429688 102.458984,14.5429688 C102.654298,14.5429688 102.808593,14.5683591 102.921875,14.6191406 L102.904297,15.2578125 Z M103.507812,17.7363281 C103.507812,17.1269501 103.625975,16.5781274 103.862305,16.0898438 C104.098634,15.6015601 104.432615,15.221681 104.864258,14.9501953 C105.295901,14.6787096 105.785154,14.5429688 106.332031,14.5429688 C107.175785,14.5429688 107.859372,14.8388642 108.382812,15.4306641 C108.906253,16.0224639 109.167969,16.8066357 109.167969,17.7832031 L109.167969,17.9296875 C109.167969,18.5429718 109.049806,19.0947241 108.813477,19.5849609 C108.577147,20.0751978 108.244143,20.4531237 107.814453,20.71875 C107.384763,20.9843763 106.894534,21.1171875 106.34375,21.1171875 C105.503902,21.1171875 104.821292,20.821292 104.295898,20.2294922 C103.770505,19.6376924 103.507812,18.8535205 103.507812,17.8769531 L103.507812,17.7363281 Z M104.210938,17.9296875 C104.210938,18.6875038 104.407225,19.3095679 104.799805,19.7958984 C105.192385,20.282229 105.707028,20.5253906 106.34375,20.5253906 C106.976566,20.5253906 107.489256,20.282229 107.881836,19.7958984 C108.274416,19.3095679 108.470703,18.6679727 108.470703,17.8710938 L108.470703,17.7363281 C108.470703,17.2519507 108.38086,16.8085958 108.201172,16.40625 C108.021483,16.0039042 107.769533,15.6923839 107.445312,15.4716797 C107.121092,15.2509755 106.750002,15.140625 106.332031,15.140625 C105.707028,15.140625 105.197268,15.3857397 104.802734,15.8759766 C104.408201,16.3662134 104.210938,17.0078085 104.210938,17.8007812 L104.210938,17.9296875 Z M111.371094,14.6601562 L111.371094,21.7558594 C111.371094,22.3417998 111.23047,22.789061 110.949219,23.0976562 C110.667967,23.4062515 110.253909,23.5605469 109.707031,23.5605469 C109.496093,23.5605469 109.291017,23.5234379 109.091797,23.4492188 L109.103516,22.8691406 C109.275391,22.9199221 109.451171,22.9453125 109.630859,22.9453125 C110.326175,22.9453125 110.673828,22.5449259 110.673828,21.7441406 L110.673828,14.6601562 L111.371094,14.6601562 Z M111.025391,12.3515625 C111.177735,12.3515625 111.296875,12.3974605 111.382812,12.4892578 C111.46875,12.5810551 111.511719,12.6933587 111.511719,12.8261719 C111.511719,12.958985 111.46875,13.0703121 111.382812,13.1601562 C111.296875,13.2500004 111.177735,13.2949219 111.025391,13.2949219 C110.876952,13.2949219 110.760743,13.2500004 110.676758,13.1601562 C110.592773,13.0703121 110.550781,12.958985 110.550781,12.8261719 C110.550781,12.6933587 110.592773,12.5810551 110.676758,12.4892578 C110.760743,12.3974605 110.876952,12.3515625 111.025391,12.3515625 Z M115.806641,21.1171875 C115.267575,21.1171875 114.780276,20.9843763 114.344727,20.71875 C113.909178,20.4531237 113.570314,20.0830102 113.328125,19.6083984 C113.085936,19.1337867 112.964844,18.6015654 112.964844,18.0117188 L112.964844,17.7597656 C112.964844,17.1503876 113.083007,16.6015649 113.319336,16.1132812 C113.555665,15.6249976 113.884764,15.2412123 114.306641,14.9619141 C114.728518,14.6826158 115.185544,14.5429688 115.677734,14.5429688 C116.447269,14.5429688 117.057615,14.8056614 117.508789,15.3310547 C117.959963,15.8564479 118.185547,16.5742142 118.185547,17.484375 L118.185547,17.8769531 L113.662109,17.8769531 L113.662109,18.0117188 C113.662109,18.7304723 113.868162,19.3290992 114.280273,19.8076172 C114.692385,20.2861352 115.210934,20.5253906 115.835938,20.5253906 C116.210939,20.5253906 116.541991,20.4570319 116.829102,20.3203125 C117.116212,20.1835931 117.376952,19.9648453 117.611328,19.6640625 L118.050781,19.9980469 C117.535154,20.7441444 116.787114,21.1171875 115.806641,21.1171875 Z M115.677734,15.140625 C115.150388,15.140625 114.706056,15.3339824 114.344727,15.7207031 C113.983397,16.1074238 113.763672,16.6269499 113.685547,17.2792969 L117.488281,17.2792969 L117.488281,17.203125 C117.46875,16.593747 117.294924,16.0976582 116.966797,15.7148438 C116.63867,15.3320293 116.208987,15.140625 115.677734,15.140625 Z M121.894531,20.5253906 C122.382815,20.5253906 122.791991,20.3876967 123.12207,20.1123047 C123.45215,19.8369127 123.630859,19.4804709 123.658203,19.0429688 L124.332031,19.0429688 C124.3125,19.4296894 124.191407,19.782225 123.96875,20.1005859 C123.746093,20.4189469 123.450197,20.6679679 123.081055,20.8476562 C122.711912,21.0273446 122.316408,21.1171875 121.894531,21.1171875 C121.062496,21.1171875 120.403323,20.8281279 119.916992,20.25 C119.430662,19.6718721 119.1875,18.8945361 119.1875,17.9179688 L119.1875,17.7070312 C119.1875,17.0820281 119.296874,16.5292993 119.515625,16.0488281 C119.734376,15.568357 120.04785,15.1972669 120.456055,14.9355469 C120.86426,14.6738268 121.341794,14.5429688 121.888672,14.5429688 C122.583988,14.5429688 123.157224,14.7499979 123.608398,15.1640625 C124.059573,15.5781271 124.300781,16.1230435 124.332031,16.7988281 L123.658203,16.7988281 C123.626953,16.3027319 123.448244,15.9023453 123.12207,15.5976562 C122.795897,15.2929672 122.384768,15.140625 121.888672,15.140625 C121.255856,15.140625 120.76465,15.3691383 120.415039,15.8261719 C120.065428,16.2832054 119.890625,16.923824 119.890625,17.7480469 L119.890625,17.953125 C119.890625,18.7617228 120.065428,19.3925759 120.415039,19.8457031 C120.76465,20.2988304 121.257809,20.5253906 121.894531,20.5253906 Z M126.822266,13.0371094 L126.822266,14.6601562 L128.134766,14.6601562 L128.134766,15.234375 L126.822266,15.234375 L126.822266,19.4589844 C126.822266,19.8105486 126.885742,20.0722648 127.012695,20.2441406 C127.139649,20.4160165 127.351561,20.5019531 127.648438,20.5019531 C127.765626,20.5019531 127.955077,20.4824221 128.216797,20.4433594 L128.246094,21.0175781 C128.062499,21.0839847 127.812502,21.1171875 127.496094,21.1171875 C127.015623,21.1171875 126.666017,20.9775405 126.447266,20.6982422 C126.228515,20.4189439 126.119141,20.0078152 126.119141,19.4648438 L126.119141,15.234375 L124.953125,15.234375 L124.953125,14.6601562 L126.119141,14.6601562 L126.119141,13.0371094 L126.822266,13.0371094 Z" id="Topos-Project" fill="#000000"></path>
                <path d="M48.25,20.5 L48.25,0.5" id="Line" stroke="#000000" stroke-width="0.5" stroke-linecap="square"></path>
            </g>
        </g>
    </g>
</svg>