<?xml version="1.0" encoding="UTF-8"?>
<svg width="31px" height="21px" viewBox="0 0 31 21" version="1.1" xmlns="http://www.w3.org/2000/svg" xmlns:xlink="http://www.w3.org/1999/xlink">
    <!-- Generator: Sketch 43.2 (39069) - http://www.bohemiancoding.com/sketch -->
    <title>Group 4</title>
    <desc>Created with Sketch.</desc>
    <defs></defs>
    <g id="Page-1" stroke="none" stroke-width="1" fill="none" fill-rule="evenodd">
        <g id="iPhone-SE" transform="translate(-244.000000, -68.000000)" fill="#551A8B">
            <g id="Group-4" transform="translate(244.000000, 68.000000)">
                <path d="M0.918633082,0.00117065691 C0.411210245,0.0433815238 0,0.47288916 0,0.996512411 L0,19.9990202 C0,20.5591515 0.448037399,20.9977663 1.00071954,20.9977663 L29.5992808,20.9977663 C30.1436879,20.9977663 30.6000004,20.5506125 30.6000004,19.9990202 L30.6000004,0.996512411 C30.6000004,0.473219089 30.2089569,0.0559843168 29.7068694,0.00336746853 C27.7007709,1.69816402 17.7092999,10.0579534 15.812277,10.0579534 C13.7761229,10.0579534 3.38273449,2.84499524 0.918633082,0.00117065691 Z" id="Combined-Shape"></path>
                <path d="M2,0.0982082661 L28,0 C28,0 18.1715755,8.95154316 16.0283126,8.99980551 C13.8850498,9.04806786 2,0.0982082661 2,0.0982082661 Z" id="Path-3"></path>
            </g>
        </g>
    </g>
</svg>