<?xml version="1.0" encoding="UTF-8"?>
<svg width="125px" height="23px" viewBox="0 0 125 23" version="1.1" xmlns="http://www.w3.org/2000/svg" xmlns:xlink="http://www.w3.org/1999/xlink">
    <!-- Generator: Sketch 43.2 (39069) - http://www.bohemiancoding.com/sketch -->
    <title>Group 5</title>
    <desc>Created with Sketch.</desc>
    <defs></defs>
    <g id="Page-1" stroke="none" stroke-width="1" fill="none" fill-rule="evenodd">
        <g id="iPhone-SE" transform="translate(-14.000000, -10.000000)">
            <g id="Group-5" transform="translate(14.000000, 10.000000)">
                <g id="topos-ninetoo">
                    <g id="Group-4" transform="translate(0.000000, 1.000000)" fill-rule="nonzero" fill="#551A8B">
                        <g id="logo-9too">
                            <g id="Group-3">
                                <g id="Page-1">
                                    <g id="Logo-dtoo">
                                        <g id="Group-3">
                                            <g id="Group-2">
                                                <g id="Group" transform="translate(6.256978, 10.000000) rotate(180.000000) translate(-6.256978, -10.000000) translate(0.256978, 0.000000)">
                                                    <path d="M10.553634,17.5878065 C9.49301338,19.0497412 7.77402381,20 5.83381472,20 C2.61188825,20 8e-07,17.3795489 8e-07,14.1470588 C8e-07,10.9145687 2.61188825,8.29411765 5.83381472,8.29411765 C7.77402381,8.29411765 9.49301338,9.24437639 10.553634,10.7063111 L10.553634,3.55271368e-15 L11.7262599,3.55271368e-15 L11.7262599,20 L10.553634,20 L10.553634,17.5878065 Z M5.83381472,18.7647059 C8.40811777,18.7647059 10.4950027,16.6709787 10.4950027,14.0882353 C10.4950027,11.5054919 8.40811777,9.41176471 5.83381472,9.41176471 C3.25951166,9.41176471 1.17262671,11.5054919 1.17262671,14.0882353 C1.17262671,16.6709787 3.25951166,18.7647059 5.83381472,18.7647059 Z" id="Combined-Shape" transform="translate(5.863130, 10.000000) scale(-1, 1) translate(-5.863130, -10.000000) "></path>
                                                    <path d="M10.553634,17.5878065 C9.49301338,19.0497412 7.77402381,20 5.83381472,20 C2.61188825,20 8e-07,17.3795489 8e-07,14.1470588 C8e-07,10.9145687 2.61188825,8.29411765 5.83381472,8.29411765 C7.77402381,8.29411765 9.49301338,9.24437639 10.553634,10.7063111 L10.553634,3.55271368e-15 L11.7262599,3.55271368e-15 L11.7262599,20 L10.553634,20 L10.553634,17.5878065 Z M5.83381472,18.7647059 C8.40811777,18.7647059 10.4950027,16.6709787 10.4950027,14.0882353 C10.4950027,11.5054919 8.40811777,9.41176471 5.83381472,9.41176471 C3.25951166,9.41176471 1.17262671,11.5054919 1.17262671,14.0882353 C1.17262671,16.6709787 3.25951166,18.7647059 5.83381472,18.7647059 Z" id="Combined-Shape" transform="translate(5.863130, 10.000000) scale(-1, 1) translate(-5.863130, -10.000000) "></path>
                                                </g>
                                            </g>
                                            <polygon id="Combined-Shape" points="14.6022299 5.88235295 14.6022299 0 13.429604 0 13.429604 20 14.6022299 20 14.6022299 7.05882353 15.7748559 7.05882353 15.7748559 5.88235295"></polygon>
                                            <path d="M21.6086697,19.9411765 C18.3867433,19.9411765 15.7748559,17.3207255 15.7748559,14.0882353 C15.7748559,10.8557451 18.3867433,8.23529412 21.6086697,8.23529412 C24.8305963,8.23529412 27.4424836,10.8557451 27.4424836,14.0882353 C27.4424836,17.3207255 24.8305963,19.9411765 21.6086697,19.9411765 Z M21.6673011,18.8235295 C24.2416041,18.8235295 26.3284891,16.7298023 26.3284891,14.1470588 C26.3284891,11.5643154 24.2416041,9.47058824 21.6673011,9.47058824 C19.092998,9.47058824 17.0061131,11.5643154 17.0061131,14.1470588 C17.0061131,16.7298023 19.092998,18.8235295 21.6673011,18.8235295 Z" id="Combined-Shape"></path>
                                            <path d="M34.5661861,19.9411765 C31.3442596,19.9411765 28.7323721,17.3207255 28.7323721,14.0882353 C28.7323721,10.8557451 31.3442596,8.23529412 34.5661861,8.23529412 C37.7881125,8.23529412 40.4,10.8557451 40.4,14.0882353 C40.4,17.3207255 37.7881125,19.9411765 34.5661861,19.9411765 Z M34.5661861,18.8235295 C37.1404891,18.8235295 39.2273741,16.7298023 39.2273741,14.1470588 C39.2273741,11.5643154 37.1404891,9.47058824 34.5661861,9.47058824 C31.9918831,9.47058824 29.9049981,11.5643154 29.9049981,14.1470588 C29.9049981,16.7298023 31.9918831,18.8235295 34.5661861,18.8235295 Z" id="Combined-Shape"></path>
                                        </g>
                                    </g>
                                </g>
                            </g>
                        </g>
                    </g>
                    <path d="M48.25,20.5 L48.25,0.5" id="Line" stroke="#551A8B" stroke-width="0.5" stroke-linecap="square"></path>
                </g>
                <path d="M62.90625,17.9023438 C62.90625,17.4296851 62.740236,17.0556654 62.4082031,16.7802734 C62.0761702,16.5048814 61.4687544,16.2431653 60.5859375,15.9951172 C59.7031206,15.7470691 59.0585958,15.476564 58.6523438,15.1835938 C58.0742159,14.7695292 57.7851562,14.2265659 57.7851562,13.5546875 C57.7851562,12.9023405 58.0537083,12.3720724 58.5908203,11.9638672 C59.1279324,11.555662 59.8144489,11.3515625 60.6503906,11.3515625 C61.2167997,11.3515625 61.7236306,11.4609364 62.1708984,11.6796875 C62.6181663,11.8984386 62.9648425,12.203123 63.2109375,12.59375 C63.4570325,12.984377 63.5800781,13.4199195 63.5800781,13.9003906 L62.8535156,13.9003906 C62.8535156,13.3183565 62.6542989,12.8505877 62.2558594,12.4970703 C61.8574199,12.1435529 61.322269,11.9667969 60.6503906,11.9667969 C59.9980436,11.9667969 59.4785176,12.1123032 59.0917969,12.4033203 C58.7050762,12.6943374 58.5117188,13.0742164 58.5117188,13.5429688 C58.5117188,13.9765647 58.6855451,14.3300768 59.0332031,14.6035156 C59.3808611,14.8769545 59.9374962,15.118163 60.703125,15.3271484 C61.4687538,15.5361339 62.0488262,15.7529286 62.4433594,15.9775391 C62.8378926,16.2021496 63.1347646,16.4707016 63.3339844,16.7832031 C63.5332041,17.0957047 63.6328125,17.4648416 63.6328125,17.890625 C63.6328125,18.5625034 63.3642605,19.1015605 62.8271484,19.5078125 C62.2900364,19.9140645 61.5820356,20.1171875 60.703125,20.1171875 C60.1015595,20.1171875 59.5498072,20.0097667 59.0478516,19.7949219 C58.5458959,19.5800771 58.1650404,19.2792988 57.9052734,18.8925781 C57.6455065,18.5058574 57.515625,18.0625025 57.515625,17.5625 L58.2363281,17.5625 C58.2363281,18.1640655 58.4609353,18.6386701 58.9101562,18.9863281 C59.3593772,19.3339861 59.9570275,19.5078125 60.703125,19.5078125 C61.3671908,19.5078125 61.9003886,19.3613296 62.3027344,19.0683594 C62.7050801,18.7753892 62.90625,18.3867212 62.90625,17.9023438 Z M65.8066406,20 L65.1035156,20 L65.1035156,11 L65.8066406,11 L65.8066406,20 Z M71.7128906,20 C71.6425778,19.8007803 71.5976563,19.5058613 71.578125,19.1152344 C71.33203,19.4355485 71.0185566,19.6826163 70.6376953,19.8564453 C70.256834,20.0302743 69.8535178,20.1171875 69.4277344,20.1171875 C68.8183563,20.1171875 68.3251972,19.9472673 67.9482422,19.6074219 C67.5712872,19.2675764 67.3828125,18.8378932 67.3828125,18.3183594 C67.3828125,17.7011688 67.6396459,17.2128924 68.1533203,16.8535156 C68.6669948,16.4941388 69.3828079,16.3144531 70.3007812,16.3144531 L71.5722656,16.3144531 L71.5722656,15.59375 C71.5722656,15.1406227 71.4326186,14.784181 71.1533203,14.5244141 C70.874022,14.2646471 70.4667996,14.1347656 69.9316406,14.1347656 C69.4433569,14.1347656 69.0390641,14.2597644 68.71875,14.5097656 C68.3984359,14.7597669 68.2382812,15.0605451 68.2382812,15.4121094 L67.5351562,15.40625 C67.5351562,14.9023412 67.7695289,14.4658222 68.2382812,14.0966797 C68.7070336,13.7275372 69.2831997,13.5429688 69.9667969,13.5429688 C70.6738317,13.5429688 71.2314433,13.7197248 71.6396484,14.0732422 C72.0478536,14.4267596 72.2578124,14.9199187 72.2695312,15.5527344 L72.2695312,18.5527344 C72.2695312,19.1660187 72.3339837,19.6249985 72.4628906,19.9296875 L72.4628906,20 L71.7128906,20 Z M69.5097656,19.4960938 C69.978518,19.4960938 70.3974591,19.3828136 70.7666016,19.15625 C71.135744,18.9296864 71.404296,18.626955 71.5722656,18.2480469 L71.5722656,16.8535156 L70.3183594,16.8535156 C69.6191371,16.8613282 69.0722676,16.9892566 68.6777344,17.2373047 C68.2832012,17.4853528 68.0859375,17.8261697 68.0859375,18.2597656 C68.0859375,18.6152362 68.2177721,18.9101551 68.4814453,19.1445312 C68.7451185,19.3789074 69.0878885,19.4960938 69.5097656,19.4960938 Z M76.4824219,19.5253906 C76.9707056,19.5253906 77.3798812,19.3876967 77.7099609,19.1123047 C78.0400407,18.8369127 78.2187499,18.4804709 78.2460938,18.0429688 L78.9199219,18.0429688 C78.9003905,18.4296894 78.779298,18.782225 78.5566406,19.1005859 C78.3339833,19.4189469 78.0380878,19.6679679 77.6689453,19.8476562 C77.2998028,20.0273446 76.904299,20.1171875 76.4824219,20.1171875 C75.6503865,20.1171875 74.9912134,19.8281279 74.5048828,19.25 C74.0185523,18.6718721 73.7753906,17.8945361 73.7753906,16.9179688 L73.7753906,16.7070312 C73.7753906,16.0820281 73.8847645,15.5292993 74.1035156,15.0488281 C74.3222667,14.568357 74.6357401,14.1972669 75.0439453,13.9355469 C75.4521505,13.6738268 75.9296848,13.5429688 76.4765625,13.5429688 C77.1718785,13.5429688 77.7451149,13.7499979 78.1962891,14.1640625 C78.6474632,14.5781271 78.8886717,15.1230435 78.9199219,15.7988281 L78.2460938,15.7988281 C78.2148436,15.3027319 78.0361344,14.9023453 77.7099609,14.5976562 C77.3837874,14.2929672 76.9726587,14.140625 76.4765625,14.140625 C75.8437468,14.140625 75.3525408,14.3691383 75.0029297,14.8261719 C74.6533186,15.2832054 74.4785156,15.923824 74.4785156,16.7480469 L74.4785156,16.953125 C74.4785156,17.7617228 74.6533186,18.3925759 75.0029297,18.8457031 C75.3525408,19.2988304 75.8456999,19.5253906 76.4824219,19.5253906 Z M81.8261719,16.8066406 L81.0234375,17.5800781 L81.0234375,20 L80.3203125,20 L80.3203125,11 L81.0234375,11 L81.0234375,16.7597656 L81.6855469,16.0449219 L84.1113281,13.6601562 L84.9960938,13.6601562 L82.3066406,16.3320312 L85.2304688,20 L84.3925781,20 L81.8261719,16.8066406 Z M90,16.5253906 L90,20 L89.2792969,20 L89.2792969,11.46875 L92.1855469,11.46875 C93.0722701,11.46875 93.7724584,11.6953102 94.2861328,12.1484375 C94.7998073,12.6015648 95.0566406,13.2246054 95.0566406,14.0175781 C95.0566406,14.8183634 94.8095728,15.4365213 94.3154297,15.8720703 C93.8212866,16.3076194 93.1054734,16.5253906 92.1679688,16.5253906 L90,16.5253906 Z M90,15.9160156 L92.1855469,15.9160156 C92.8847691,15.9160156 93.4179669,15.7500017 93.7851562,15.4179688 C94.1523456,15.0859358 94.3359375,14.6230498 94.3359375,14.0292969 C94.3359375,13.4394502 94.1533221,12.9697283 93.7880859,12.6201172 C93.4228497,12.2705061 92.9043002,12.0917969 92.2324219,12.0839844 L90,12.0839844 L90,15.9160156 Z M99.4335938,14.2578125 C99.2851555,14.2304686 99.126954,14.2167969 98.9589844,14.2167969 C98.5214822,14.2167969 98.1513687,14.338866 97.8486328,14.5830078 C97.5458969,14.8271497 97.3300788,15.1816383 97.2011719,15.6464844 L97.2011719,20 L96.5039062,20 L96.5039062,13.6601562 L97.1894531,13.6601562 L97.2011719,14.6679688 C97.5722675,13.917965 98.1679646,13.5429688 98.9882812,13.5429688 C99.1835947,13.5429688 99.3378901,13.5683591 99.4511719,13.6191406 L99.4335938,14.2578125 Z M100.037109,16.7363281 C100.037109,16.1269501 100.155272,15.5781274 100.391602,15.0898438 C100.627931,14.6015601 100.961912,14.221681 101.393555,13.9501953 C101.825197,13.6787096 102.31445,13.5429688 102.861328,13.5429688 C103.705082,13.5429688 104.388669,13.8388642 104.912109,14.4306641 C105.435549,15.0224639 105.697266,15.8066357 105.697266,16.7832031 L105.697266,16.9296875 C105.697266,17.5429718 105.579103,18.0947241 105.342773,18.5849609 C105.106444,19.0751978 104.77344,19.4531237 104.34375,19.71875 C103.91406,19.9843763 103.423831,20.1171875 102.873047,20.1171875 C102.033199,20.1171875 101.350589,19.821292 100.825195,19.2294922 C100.299802,18.6376924 100.037109,17.8535205 100.037109,16.8769531 L100.037109,16.7363281 Z M100.740234,16.9296875 C100.740234,17.6875038 100.936521,18.3095679 101.329102,18.7958984 C101.721682,19.282229 102.236325,19.5253906 102.873047,19.5253906 C103.505863,19.5253906 104.018553,19.282229 104.411133,18.7958984 C104.803713,18.3095679 105,17.6679727 105,16.8710938 L105,16.7363281 C105,16.2519507 104.910157,15.8085958 104.730469,15.40625 C104.55078,15.0039042 104.29883,14.6923839 103.974609,14.4716797 C103.650389,14.2509755 103.279299,14.140625 102.861328,14.140625 C102.236325,14.140625 101.726564,14.3857397 101.332031,14.8759766 C100.937498,15.3662134 100.740234,16.0078085 100.740234,16.8007812 L100.740234,16.9296875 Z M107.900391,13.6601562 L107.900391,20.7558594 C107.900391,21.3417998 107.759767,21.789061 107.478516,22.0976562 C107.197264,22.4062515 106.783206,22.5605469 106.236328,22.5605469 C106.02539,22.5605469 105.820313,22.5234379 105.621094,22.4492188 L105.632812,21.8691406 C105.804688,21.9199221 105.980468,21.9453125 106.160156,21.9453125 C106.855472,21.9453125 107.203125,21.5449259 107.203125,20.7441406 L107.203125,13.6601562 L107.900391,13.6601562 Z M107.554688,11.3515625 C107.707032,11.3515625 107.826171,11.3974605 107.912109,11.4892578 C107.998047,11.5810551 108.041016,11.6933587 108.041016,11.8261719 C108.041016,11.958985 107.998047,12.0703121 107.912109,12.1601562 C107.826171,12.2500004 107.707032,12.2949219 107.554688,12.2949219 C107.406249,12.2949219 107.290039,12.2500004 107.206055,12.1601562 C107.12207,12.0703121 107.080078,11.958985 107.080078,11.8261719 C107.080078,11.6933587 107.12207,11.5810551 107.206055,11.4892578 C107.290039,11.3974605 107.406249,11.3515625 107.554688,11.3515625 Z M112.335938,20.1171875 C111.796872,20.1171875 111.309572,19.9843763 110.874023,19.71875 C110.438474,19.4531237 110.099611,19.0830102 109.857422,18.6083984 C109.615233,18.1337867 109.494141,17.6015654 109.494141,17.0117188 L109.494141,16.7597656 C109.494141,16.1503876 109.612304,15.6015649 109.848633,15.1132812 C110.084962,14.6249976 110.41406,14.2412123 110.835938,13.9619141 C111.257815,13.6826158 111.714841,13.5429688 112.207031,13.5429688 C112.976566,13.5429688 113.586912,13.8056614 114.038086,14.3310547 C114.48926,14.8564479 114.714844,15.5742142 114.714844,16.484375 L114.714844,16.8769531 L110.191406,16.8769531 L110.191406,17.0117188 C110.191406,17.7304723 110.397459,18.3290992 110.80957,18.8076172 C111.221682,19.2861352 111.740231,19.5253906 112.365234,19.5253906 C112.740236,19.5253906 113.071288,19.4570319 113.358398,19.3203125 C113.645509,19.1835931 113.906249,18.9648453 114.140625,18.6640625 L114.580078,18.9980469 C114.064451,19.7441444 113.316411,20.1171875 112.335938,20.1171875 Z M112.207031,14.140625 C111.679685,14.140625 111.235353,14.3339824 110.874023,14.7207031 C110.512694,15.1074238 110.292969,15.6269499 110.214844,16.2792969 L114.017578,16.2792969 L114.017578,16.203125 C113.998047,15.593747 113.82422,15.0976582 113.496094,14.7148438 C113.167967,14.3320293 112.738284,14.140625 112.207031,14.140625 Z M118.423828,19.5253906 C118.912112,19.5253906 119.321287,19.3876967 119.651367,19.1123047 C119.981447,18.8369127 120.160156,18.4804709 120.1875,18.0429688 L120.861328,18.0429688 C120.841797,18.4296894 120.720704,18.782225 120.498047,19.1005859 C120.27539,19.4189469 119.979494,19.6679679 119.610352,19.8476562 C119.241209,20.0273446 118.845705,20.1171875 118.423828,20.1171875 C117.591793,20.1171875 116.93262,19.8281279 116.446289,19.25 C115.959959,18.6718721 115.716797,17.8945361 115.716797,16.9179688 L115.716797,16.7070312 C115.716797,16.0820281 115.826171,15.5292993 116.044922,15.0488281 C116.263673,14.568357 116.577146,14.1972669 116.985352,13.9355469 C117.393557,13.6738268 117.871091,13.5429688 118.417969,13.5429688 C119.113285,13.5429688 119.686521,13.7499979 120.137695,14.1640625 C120.588869,14.5781271 120.830078,15.1230435 120.861328,15.7988281 L120.1875,15.7988281 C120.15625,15.3027319 119.977541,14.9023453 119.651367,14.5976562 C119.325194,14.2929672 118.914065,14.140625 118.417969,14.140625 C117.785153,14.140625 117.293947,14.3691383 116.944336,14.8261719 C116.594725,15.2832054 116.419922,15.923824 116.419922,16.7480469 L116.419922,16.953125 C116.419922,17.7617228 116.594725,18.3925759 116.944336,18.8457031 C117.293947,19.2988304 117.787106,19.5253906 118.423828,19.5253906 Z M123.351562,12.0371094 L123.351562,13.6601562 L124.664062,13.6601562 L124.664062,14.234375 L123.351562,14.234375 L123.351562,18.4589844 C123.351562,18.8105486 123.415038,19.0722648 123.541992,19.2441406 C123.668946,19.4160165 123.880858,19.5019531 124.177734,19.5019531 C124.294922,19.5019531 124.484374,19.4824221 124.746094,19.4433594 L124.775391,20.0175781 C124.591796,20.0839847 124.341798,20.1171875 124.025391,20.1171875 C123.544919,20.1171875 123.195314,19.9775405 122.976562,19.6982422 C122.757811,19.4189439 122.648438,19.0078152 122.648438,18.4648438 L122.648438,14.234375 L121.482422,14.234375 L121.482422,13.6601562 L122.648438,13.6601562 L122.648438,12.0371094 L123.351562,12.0371094 Z" id="Slack-Project" fill="#551A8B"></path>
            </g>
        </g>
    </g>
</svg>