<?xml version="1.0" encoding="UTF-8"?>
<svg width="111px" height="160px" viewBox="0 0 111 160" version="1.1" xmlns="http://www.w3.org/2000/svg" xmlns:xlink="http://www.w3.org/1999/xlink">
    <!-- Generator: Sketch 43.2 (39069) - http://www.bohemiancoding.com/sketch -->
    <title>Group 3</title>
    <desc>Created with Sketch.</desc>
    <defs>
        <circle id="path-1" cx="50.5" cy="50.5" r="50.5"></circle>
        <filter x="-7.9%" y="-5.9%" width="115.8%" height="115.8%" filterUnits="objectBoundingBox" id="filter-2">
            <feMorphology radius="1" operator="dilate" in="SourceAlpha" result="shadowSpreadOuter1"></feMorphology>
            <feOffset dx="0" dy="2" in="shadowSpreadOuter1" result="shadowOffsetOuter1"></feOffset>
            <feMorphology radius="1" operator="erode" in="SourceAlpha" result="shadowInner"></feMorphology>
            <feOffset dx="0" dy="2" in="shadowInner" result="shadowInner"></feOffset>
            <feComposite in="shadowOffsetOuter1" in2="shadowInner" operator="out" result="shadowOffsetOuter1"></feComposite>
            <feGaussianBlur stdDeviation="2" in="shadowOffsetOuter1" result="shadowBlurOuter1"></feGaussianBlur>
            <feColorMatrix values="0 0 0 0 0   0 0 0 0 0   0 0 0 0 0  0 0 0 0.5 0" type="matrix" in="shadowBlurOuter1"></feColorMatrix>
        </filter>
        <polygon id="path-3" points="72 50.5 41 66 41 35"></polygon>
        <filter x="-22.6%" y="-16.1%" width="145.2%" height="145.2%" filterUnits="objectBoundingBox" id="filter-4">
            <feOffset dx="0" dy="2" in="SourceAlpha" result="shadowOffsetOuter1"></feOffset>
            <feGaussianBlur stdDeviation="2" in="shadowOffsetOuter1" result="shadowBlurOuter1"></feGaussianBlur>
            <feColorMatrix values="0 0 0 0 0   0 0 0 0 0   0 0 0 0 0  0 0 0 0.5 0" type="matrix" in="shadowBlurOuter1"></feColorMatrix>
        </filter>
        <path d="M12.0556641,123.169922 C10.6103443,122.876952 9.40918447,122.730469 8.45214844,122.730469 C7.44628403,122.730469 6.66992461,123.030759 6.12304688,123.631348 C5.57616914,124.231937 5.30273438,125.083979 5.30273438,126.1875 L5.30273438,128.150391 L9.08203125,128.150391 L9.08203125,129.585938 L5.30273438,129.585938 L5.30273438,144 L3.54492188,144 L3.54492188,129.585938 L0.922851562,129.585938 L0.922851562,128.150391 L3.54492188,128.150391 L3.54492188,126.128906 C3.55468755,124.527336 3.97948799,123.304203 4.81933594,122.459473 C5.65918389,121.614742 6.83104717,121.192383 8.33496094,121.192383 C9.54590449,121.192383 11.3671753,121.490231 13.7988281,122.085938 L13.7988281,144 L12.0556641,144 L12.0556641,123.169922 Z M17.6513672,135.84082 C17.6513672,134.317375 17.9467744,132.945319 18.5375977,131.724609 C19.1284209,130.5039 19.9633735,129.554203 21.0424805,128.875488 C22.1215874,128.196774 23.3447197,127.857422 24.7119141,127.857422 C26.8212996,127.857422 28.5302669,128.597161 29.8388672,130.07666 C31.1474675,131.55616 31.8017578,133.516589 31.8017578,135.958008 L31.8017578,136.324219 C31.8017578,137.85743 31.5063506,139.23681 30.9155273,140.462402 C30.3247041,141.687994 29.4921929,142.632809 28.4179688,143.296875 C27.3437446,143.960941 26.1181709,144.292969 24.7412109,144.292969 C22.6415911,144.292969 20.9350652,143.55323 19.621582,142.07373 C18.3080989,140.594231 17.6513672,138.633801 17.6513672,136.192383 L17.6513672,135.84082 Z M19.4091797,136.324219 C19.4091797,138.218759 19.8998974,139.77392 20.8813477,140.989746 C21.8627979,142.205572 23.1494061,142.813477 24.7412109,142.813477 C26.3232501,142.813477 27.6049756,142.205572 28.5864258,140.989746 C29.567876,139.77392 30.0585938,138.169932 30.0585938,136.177734 L30.0585938,135.84082 C30.0585938,134.629877 29.8339866,133.521489 29.3847656,132.515625 C28.9355446,131.509761 28.3056681,130.73096 27.4951172,130.179199 C26.6845663,129.627439 25.7568412,129.351562 24.7119141,129.351562 C23.1494062,129.351562 21.8750049,129.964349 20.8886719,131.189941 C19.9023388,132.415533 19.4091797,134.019521 19.4091797,136.001953 L19.4091797,136.324219 Z M45.4248047,144 C45.2490226,143.501951 45.136719,142.764653 45.0878906,141.788086 C44.4726532,142.588871 43.6889696,143.206541 42.7368164,143.641113 C41.7846632,144.075686 40.7763725,144.292969 39.7119141,144.292969 C38.1884689,144.292969 36.9555711,143.868168 36.0131836,143.018555 C35.0707961,142.168941 34.5996094,141.094733 34.5996094,139.795898 C34.5996094,138.252922 35.2416928,137.032231 36.5258789,136.133789 C37.810065,135.235347 39.5995979,134.786133 41.8945312,134.786133 L45.0732422,134.786133 L45.0732422,132.984375 C45.0732422,131.851557 44.7241246,130.960452 44.0258789,130.311035 C43.3276332,129.661618 42.309577,129.336914 40.9716797,129.336914 C39.7509705,129.336914 38.7402384,129.649411 37.9394531,130.274414 C37.1386679,130.899417 36.7382812,131.651363 36.7382812,132.530273 L34.9804688,132.515625 C34.9804688,131.255853 35.5664004,130.164555 36.7382812,129.241699 C37.9101621,128.318843 39.3505774,127.857422 41.0595703,127.857422 C42.8271573,127.857422 44.2211863,128.299312 45.2416992,129.183105 C46.2622121,130.066899 46.7871092,131.299797 46.8164062,132.881836 L46.8164062,140.381836 C46.8164062,141.915047 46.9775375,143.062496 47.2998047,143.824219 L47.2998047,144 L45.4248047,144 Z M39.9169922,142.740234 C41.088873,142.740234 42.1362259,142.457034 43.059082,141.890625 C43.9819382,141.324216 44.6533182,140.567388 45.0732422,139.620117 L45.0732422,136.133789 L41.9384766,136.133789 C40.1904209,136.15332 38.8232471,136.473141 37.8369141,137.093262 C36.850581,137.713382 36.3574219,138.565424 36.3574219,139.649414 C36.3574219,140.53809 36.6870084,141.275388 37.3461914,141.861328 C38.0053744,142.447269 38.8622994,142.740234 39.9169922,142.740234 Z M54.2138672,124.092773 L54.2138672,128.150391 L57.4951172,128.150391 L57.4951172,129.585938 L54.2138672,129.585938 L54.2138672,140.147461 C54.2138672,141.026372 54.372557,141.680662 54.6899414,142.110352 C55.0073258,142.540041 55.5371057,142.754883 56.2792969,142.754883 C56.5722671,142.754883 57.0458952,142.706055 57.7001953,142.608398 L57.7734375,144.043945 C57.3144508,144.209962 56.6894571,144.292969 55.8984375,144.292969 C54.6972596,144.292969 53.8232449,143.943851 53.2763672,143.245605 C52.7294895,142.54736 52.4560547,141.519538 52.4560547,140.162109 L52.4560547,129.585938 L49.5410156,129.585938 L49.5410156,128.150391 L52.4560547,128.150391 L52.4560547,124.092773 L54.2138672,124.092773 Z M63.0908203,144 L61.3330078,144 L61.3330078,128.150391 L63.0908203,128.150391 L63.0908203,144 Z M61.0253906,123.56543 C61.0253906,123.233397 61.1328114,122.952638 61.3476562,122.723145 C61.5625011,122.493651 61.8554669,122.378906 62.2265625,122.378906 C62.5976581,122.378906 62.8930653,122.493651 63.112793,122.723145 C63.3325206,122.952638 63.4423828,123.233397 63.4423828,123.56543 C63.4423828,123.897463 63.3325206,124.17578 63.112793,124.400391 C62.8930653,124.625001 62.5976581,124.737305 62.2265625,124.737305 C61.8554669,124.737305 61.5625011,124.625001 61.3476562,124.400391 C61.1328114,124.17578 61.0253906,123.897463 61.0253906,123.56543 Z M69.5214844,128.150391 L69.5800781,130.860352 C70.1757842,129.883784 70.9179643,129.139163 71.8066406,128.626465 C72.6953169,128.113767 73.6767524,127.857422 74.7509766,127.857422 C76.4502038,127.857422 77.7148396,128.335933 78.5449219,129.292969 C79.3750042,130.250005 79.7949218,131.685537 79.8046875,133.599609 L79.8046875,144 L78.0615234,144 L78.0615234,133.584961 C78.0517578,132.168938 77.7514678,131.114261 77.1606445,130.420898 C76.5698213,129.727536 75.6250065,129.380859 74.3261719,129.380859 C73.2421821,129.380859 72.282719,129.720211 71.4477539,130.398926 C70.6127888,131.07764 69.9951192,131.993158 69.5947266,133.145508 L69.5947266,144 L67.8515625,144 L67.8515625,128.150391 L69.5214844,128.150391 Z M83.6279297,135.928711 C83.6279297,133.44823 84.1772406,131.482917 85.2758789,130.032715 C86.3745172,128.582512 87.8662015,127.857422 89.7509766,127.857422 C91.9091905,127.857422 93.5497991,128.716788 94.6728516,130.435547 L94.7607422,128.150391 L96.4013672,128.150391 L96.4013672,143.677734 C96.4013672,145.71876 95.8300838,147.334955 94.6875,148.526367 C93.5449162,149.717779 91.9970801,150.313477 90.0439453,150.313477 C88.9404242,150.313477 87.8881886,150.066897 86.887207,149.57373 C85.8862255,149.080564 85.0976591,148.423832 84.5214844,147.603516 L85.5029297,146.548828 C86.7431703,148.072273 88.2177649,148.833984 89.9267578,148.833984 C91.3916089,148.833984 92.5341756,148.40186 93.3544922,147.537598 C94.1748088,146.673336 94.5996092,145.474617 94.6289062,143.941406 L94.6289062,141.949219 C93.5058538,143.511727 91.8701279,144.292969 89.7216797,144.292969 C87.885733,144.292969 86.4111384,143.560554 85.2978516,142.095703 C84.1845647,140.630852 83.6279297,138.653333 83.6279297,136.163086 L83.6279297,135.928711 Z M85.4003906,136.236328 C85.4003906,138.257823 85.80566,139.852045 86.6162109,141.019043 C87.4267619,142.186041 88.5693286,142.769531 90.0439453,142.769531 C92.2021592,142.769531 93.7304643,141.802744 94.6289062,139.869141 L94.6289062,132.500977 C94.2187479,131.485346 93.6279335,130.711428 92.8564453,130.179199 C92.0849571,129.64697 91.157232,129.380859 90.0732422,129.380859 C88.5986254,129.380859 87.451176,129.959467 86.6308594,131.116699 C85.8105428,132.273932 85.4003906,133.980457 85.4003906,136.236328 Z" id="path-5"></path>
        <filter x="-7.3%" y="-17.2%" width="114.7%" height="148.1%" filterUnits="objectBoundingBox" id="filter-6">
            <feOffset dx="0" dy="2" in="SourceAlpha" result="shadowOffsetOuter1"></feOffset>
            <feGaussianBlur stdDeviation="2" in="shadowOffsetOuter1" result="shadowBlurOuter1"></feGaussianBlur>
            <feColorMatrix values="0 0 0 0 0   0 0 0 0 0   0 0 0 0 0  0 0 0 0.5 0" type="matrix" in="shadowBlurOuter1"></feColorMatrix>
        </filter>
    </defs>
    <g id="Page-1" stroke="none" stroke-width="1" fill="none" fill-rule="evenodd">
        <g id="iPhone-SE" transform="translate(-105.000000, -185.000000)">
            <g id="Group-3" transform="translate(110.000000, 188.000000)">
                <g id="Group">
                    <g id="Oval">
                        <use fill="black" fill-opacity="1" filter="url(#filter-2)" xlink:href="#path-1"></use>
                        <use stroke="#FFFFFF" stroke-width="2" xlink:href="#path-1"></use>
                    </g>
                    <g id="Triangle">
                        <use fill="black" fill-opacity="1" filter="url(#filter-4)" xlink:href="#path-3"></use>
                        <use fill="#FFFFFF" fill-rule="evenodd" xlink:href="#path-3"></use>
                    </g>
                </g>
                <g id="floating">
                    <use fill="black" fill-opacity="1" filter="url(#filter-6)" xlink:href="#path-5"></use>
                    <use fill="#FFFFFF" fill-rule="evenodd" xlink:href="#path-5"></use>
                </g>
            </g>
        </g>
    </g>
</svg>